<?xml version="1.0" standalone="no"?>
<!DOCTYPE svg PUBLIC "-//W3C//DTD SVG 20010904//EN"
 "http://www.w3.org/TR/2001/REC-SVG-20010904/DTD/svg10.dtd">
<svg version="1.0" xmlns="http://www.w3.org/2000/svg"
 width="500.000000pt" height="500.000000pt" viewBox="0 0 500.000000 500.000000"
 preserveAspectRatio="xMidYMid meet">
<metadata>
Created by potrace 1.14, written by Peter Selinger 2001-2017
</metadata>
<g transform="translate(0.000000,500.000000) scale(0.100000,-0.100000)"
fill="#000000" stroke="none">
<path d="M827 4984 c-392 -71 -700 -361 -800 -751 l-22 -88 0 -1645 0 -1645
23 -90 c30 -120 116 -294 192 -388 140 -174 327 -293 547 -350 l88 -22 1645 0
1645 0 90 23 c120 30 294 116 388 192 174 140 293 327 350 547 l22 88 0 1645
0 1645 -23 90 c-30 120 -116 294 -192 388 -138 172 -322 290 -542 349 l-83 23
-1625 1 c-1363 2 -1638 0 -1703 -12z m3309 -1659 c30 -19 60 -49 79 -79 26
-43 30 -59 30 -120 -1 -81 -15 -116 -71 -170 -70 -68 -57 -67 -781 -64 l-650
3 -49 30 c-160 99 -148 332 21 411 l50 24 661 -2 661 -3 49 -30z m-1848 -614
c82 -43 132 -122 132 -211 0 -62 -17 -104 -61 -155 -69 -78 -33 -75 -772 -75
-713 0 -688 -2 -756 56 -96 80 -106 228 -22 325 70 82 31 79 779 79 633 0 664
-1 700 -19z m857 0 c140 -65 178 -244 76 -362 -59 -70 -90 -79 -291 -79 -199
0 -230 8 -289 75 -44 51 -61 93 -61 155 0 91 52 173 135 211 34 16 66 19 215
19 149 0 181 -3 215 -19z m-1830 -625 c142 -66 181 -245 79 -365 -54 -65 -91
-75 -271 -79 -188 -4 -238 7 -297 64 -56 54 -70 89 -71 169 0 59 4 78 28 117
57 97 111 117 322 117 147 1 164 -1 210 -23z"/>
</g>
</svg>
