<?xml version="1.0" standalone="no"?>
<!DOCTYPE svg PUBLIC "-//W3C//DTD SVG 20010904//EN"
 "http://www.w3.org/TR/2001/REC-SVG-20010904/DTD/svg10.dtd">
<svg version="1.0" xmlns="http://www.w3.org/2000/svg"
 width="700.000000pt" height="700.000000pt" viewBox="0 0 700.000000 700.000000"
 preserveAspectRatio="xMidYMid meet">
<metadata>
Created by potrace 1.11, written by Peter Selinger 2001-2013
</metadata>
<g transform="translate(0.000000,700.000000) scale(0.100000,-0.100000)"
fill="#000000" stroke="none">
<path d="M433 6985 c-204 -44 -385 -233 -422 -439 -15 -84 -15 -6008 0 -6092
34 -187 179 -353 375 -427 l59 -22 3055 0 3055 0 59 22 c179 68 301 194 362
373 18 53 19 151 19 3100 0 2949 -1 3047 -19 3100 -68 201 -223 345 -413 385
-99 21 -6034 21 -6130 0z m2808 -1973 c57 -28 94 -79 109 -150 8 -33 10 -134
8 -275 -4 -245 -8 -266 -69 -325 -67 -65 0 -62 -1420 -62 -859 0 -1304 3
-1337 10 -60 13 -118 60 -143 114 -16 36 -19 70 -19 296 0 246 1 257 23 300
28 56 81 98 138 109 24 5 631 8 1354 8 l1310 -2 46 -23z m3250 17 c51 -18 97
-55 122 -102 21 -40 22 -52 22 -307 l0 -265 -28 -47 c-29 -51 -63 -78 -116
-96 -25 -9 -385 -12 -1360 -12 -1269 0 -1328 1 -1366 19 -22 10 -52 31 -67 47
-54 58 -58 81 -58 354 0 273 4 296 58 354 15 16 45 37 67 47 38 18 97 19 1366
19 965 0 1335 -3 1360 -11z m-3263 -1125 c49 -20 90 -60 113 -109 17 -36 19
-68 19 -295 0 -281 -5 -304 -66 -362 -66 -62 23 -58 -1427 -58 -973 0 -1333 3
-1358 12 -53 18 -87 45 -116 96 l-28 47 0 265 c0 255 1 267 22 307 25 45 70
84 118 101 20 7 459 11 1358 11 1179 1 1332 -1 1365 -15z m1547 -3 c49 -23 89
-64 109 -113 23 -55 23 -521 0 -576 -20 -49 -60 -90 -109 -113 -37 -17 -73
-19 -505 -19 -432 0 -468 2 -505 19 -22 10 -52 31 -67 47 -54 58 -58 81 -58
354 0 273 4 296 58 354 15 16 45 37 67 47 37 17 73 19 505 19 432 0 468 -2
505 -19z m1686 9 c66 -13 116 -50 147 -110 21 -43 22 -54 22 -300 0 -226 -3
-260 -19 -296 -25 -54 -83 -101 -143 -114 -31 -6 -244 -10 -567 -10 -572 0
-588 1 -650 62 -62 61 -65 73 -69 302 -5 264 1 322 38 378 33 50 72 76 132 87
63 13 1044 13 1109 1z m-4954 -1135 c32 -16 61 -41 79 -67 l29 -41 3 -266 c2
-165 -1 -279 -7 -301 -13 -45 -64 -97 -116 -121 -37 -17 -76 -19 -496 -19
-319 0 -466 3 -490 12 -53 18 -87 45 -116 96 l-28 47 0 265 c0 255 1 267 22
307 25 45 70 84 118 101 19 7 197 11 491 11 l460 1 51 -25z m4954 15 c66 -13
116 -50 147 -110 21 -43 22 -54 22 -300 0 -226 -3 -260 -19 -296 -25 -54 -83
-101 -143 -114 -71 -15 -4368 -14 -4440 1 -43 9 -62 20 -100 60 -29 29 -49 60
-53 81 -3 18 -5 151 -3 295 l3 261 31 38 c43 53 72 73 124 83 66 13 4363 14
4431 1z"/>
</g>
</svg>
