<svg version="1" xmlns="http://www.w3.org/2000/svg" width="933.333" height="933.333" viewBox="0 0 700.000000 700.000000"><path d="M127.5.7C103.1 2.8 78 11.7 58 25.3 48.2 32 29.6 50.5 23.3 60 13 75.3 6 92.3 2.3 110.5.6 119 .5 131.3.5 350s.1 231 1.8 239.5c11.3 55.8 54.4 97.3 112.2 108.1 9.6 1.8 19.5 1.9 235.5 1.9s225.9-.1 235.5-1.9c57.8-10.8 100.9-52.3 112.2-108.1 1.7-8.5 1.8-20.8 1.8-239.5s-.1-231-1.8-239.5C686.5 55.2 643.9 13.8 586.5 2.3 578 .6 564.4.5 354.5.4c-122.7 0-224.8.1-227 .3zM242.7 297c5.6 3.4 6.8 7 6.8 20.5s-1.2 17.1-6.8 20.5c-3.1 1.9-5.5 2-72.6 2h-69.4l-3.5-2.6c-1.9-1.5-4-4.2-4.8-6-1.7-4-1.9-22.9-.3-27.1 1.3-3.4 4.7-7.2 7.4-8.3 1.1-.5 33.1-.9 71-.9 66.7-.1 69.1 0 72.2 1.9zm179.1 0c6 3.7 7.2 7 7.2 20.5 0 14.3-1.3 17.7-8.1 21.3l-4.3 2.3-68.1-.3c-75.7-.3-71.2.1-75.5-7.1-1.7-2.7-2-5.1-2-16.1 0-11.8.2-13.3 2.3-16.3 4.4-6.5 1.2-6.3 76.7-6.3 66.6 0 68.6.1 71.8 2zm182.2 2.5c4.1 3.9 5.3 9.1 4.8 21-.4 11.8-2.1 15.5-8.3 18.5-4 1.9-6.4 2-70.6 2h-66.5l-4.4-2.3c-6.7-3.3-8-6.7-8-20.7 0-12.9 1.2-16.5 6.5-20 2.9-2 4.6-2 73.2-1.8l70.2.3 3.1 3zm-276 61.3c1.9.9 4.5 3.2 5.7 5.1 2.1 3.1 2.3 4.6 2.3 16.1 0 11.5-.2 13-2.3 16.1-4.9 7.4 3.7 6.9-120.2 6.9-103.7 0-111.2-.1-114.4-1.8-6.8-3.4-7.6-5.7-7.6-21.2s.8-17.8 7.6-21.2c3.2-1.7 10.7-1.8 114.4-1.8s111.2.1 114.5 1.8zm271.8 1.2c6 3.7 7.2 7 7.2 20.5s-1.2 16.8-7.2 20.5c-3.2 2-5.3 2-114.6 2-107.5 0-111.4-.1-115-1.9-6.2-3.2-7.2-6-7.2-20.8 0-10.7.3-13.3 1.9-15.9 4.1-6.8-3.4-6.4 120.1-6.4 109.5 0 111.6 0 114.8 2z"/></svg>