<?xml version="1.0" standalone="no"?>
<!DOCTYPE svg PUBLIC "-//W3C//DTD SVG 20010904//EN"
 "http://www.w3.org/TR/2001/REC-SVG-20010904/DTD/svg10.dtd">
<svg version="1.0" xmlns="http://www.w3.org/2000/svg"
 width="700.000000pt" height="700.000000pt" viewBox="0 0 700.000000 700.000000"
 preserveAspectRatio="xMidYMid meet">
<metadata>
Created by potrace 1.14, written by Peter Selinger 2001-2017
</metadata>
<g transform="translate(0.000000,700.000000) scale(0.100000,-0.100000)"
fill="#000000" stroke="none">
<path d="M3765 5021 c-49 -22 -89 -64 -109 -112 -18 -44 -23 -495 -6 -559 12
-46 57 -101 103 -127 30 -17 106 -18 1362 -21 965 -2 1341 0 1371 9 49 13 105
60 130 109 15 30 18 67 19 280 1 135 -2 260 -6 279 -12 52 -59 112 -109 137
l-45 23 -1335 0 c-1280 1 -1337 0 -1375 -18z"/>
<path d="M504 3907 c-49 -19 -83 -48 -112 -97 l-27 -45 0 -265 0 -265 27 -45
c31 -53 70 -84 124 -99 27 -8 435 -11 1359 -11 1257 1 1322 1 1360 19 45 20
91 69 112 118 17 41 19 497 2 558 -15 52 -82 119 -134 134 -59 16 -2668 14
-2711 -2z"/>
<path d="M3765 3901 c-48 -22 -89 -64 -109 -112 -19 -45 -23 -495 -5 -562 14
-54 80 -121 134 -136 53 -15 915 -15 968 0 49 13 106 64 128 114 15 34 18 72
19 282 0 153 -4 259 -11 286 -14 54 -80 121 -134 136 -27 7 -192 11 -495 11
-422 0 -458 -2 -495 -19z"/>
<path d="M480 2776 c-50 -25 -97 -85 -109 -137 -4 -19 -7 -144 -7 -279 l1
-245 27 -46 c27 -46 58 -73 111 -96 20 -9 150 -12 488 -13 432 0 463 1 504 19
53 24 100 72 116 120 9 24 13 115 13 287 0 249 0 250 -26 300 -17 34 -40 58
-73 79 l-48 30 -476 2 -476 2 -45 -23z"/>
</g>
</svg>
